<?xml version="1.0" encoding="UTF-8"?>
<svg xmlns="http://www.w3.org/2000/svg" version="1.1" width="300" height="300" viewBox="0 0 300 300"><rect x="0" y="0" width="300" height="300" fill="#ffffff"/><g transform="scale(12)"><g transform="translate(0,0)"><path fill-rule="evenodd" d="M8 0L8 1L9 1L9 2L10 2L10 3L11 3L11 1L13 1L13 2L12 2L12 4L11 4L11 5L10 5L10 4L9 4L9 5L10 5L10 8L9 8L9 6L8 6L8 8L9 8L9 9L8 9L8 10L6 10L6 9L7 9L7 8L6 8L6 9L5 9L5 8L3 8L3 9L2 9L2 8L0 8L0 9L1 9L1 10L0 10L0 11L4 11L4 9L5 9L5 10L6 10L6 11L5 11L5 15L2 15L2 14L1 14L1 13L3 13L3 14L4 14L4 12L0 12L0 17L1 17L1 15L2 15L2 16L3 16L3 17L7 17L7 16L8 16L8 18L10 18L10 16L12 16L12 15L15 15L15 16L13 16L13 17L11 17L11 19L12 19L12 21L13 21L13 22L12 22L12 23L13 23L13 22L14 22L14 23L18 23L18 22L19 22L19 24L16 24L16 25L19 25L19 24L21 24L21 25L22 25L22 24L24 24L24 25L25 25L25 20L24 20L24 19L25 19L25 18L24 18L24 16L25 16L25 14L24 14L24 13L25 13L25 10L24 10L24 9L25 9L25 8L24 8L24 9L19 9L19 8L18 8L18 9L19 9L19 10L16 10L16 8L17 8L17 5L16 5L16 8L14 8L14 7L15 7L15 4L17 4L17 3L15 3L15 2L14 2L14 1L15 1L15 0L14 0L14 1L13 1L13 0L11 0L11 1L9 1L9 0ZM16 1L16 2L17 2L17 1ZM14 3L14 4L12 4L12 5L11 5L11 7L12 7L12 9L10 9L10 10L8 10L8 11L6 11L6 12L9 12L9 11L10 11L10 10L12 10L12 11L13 11L13 13L11 13L11 12L10 12L10 13L9 13L9 14L7 14L7 13L6 13L6 14L7 14L7 15L6 15L6 16L7 16L7 15L9 15L9 16L10 16L10 15L11 15L11 14L13 14L13 13L14 13L14 14L15 14L15 10L14 10L14 11L13 11L13 10L12 10L12 9L14 9L14 8L13 8L13 7L14 7L14 4L15 4L15 3ZM12 5L12 7L13 7L13 5ZM20 10L20 11L21 11L21 10ZM22 10L22 11L24 11L24 10ZM17 11L17 12L16 12L16 13L17 13L17 14L16 14L16 16L15 16L15 17L14 17L14 18L12 18L12 19L14 19L14 20L13 20L13 21L14 21L14 22L16 22L16 21L15 21L15 19L16 19L16 16L17 16L17 15L18 15L18 14L20 14L20 16L21 16L21 18L22 18L22 19L21 19L21 20L22 20L22 22L21 22L21 21L19 21L19 22L21 22L21 24L22 24L22 22L23 22L23 19L24 19L24 18L23 18L23 17L22 17L22 15L21 15L21 14L23 14L23 13L24 13L24 12L20 12L20 13L18 13L18 12L19 12L19 11ZM20 13L20 14L21 14L21 13ZM23 15L23 16L24 16L24 15ZM17 17L17 20L20 20L20 17ZM18 18L18 19L19 19L19 18ZM9 19L9 20L8 20L8 22L9 22L9 23L8 23L8 25L10 25L10 24L11 24L11 23L10 23L10 22L11 22L11 21L10 21L10 19ZM9 23L9 24L10 24L10 23ZM12 24L12 25L15 25L15 24ZM0 0L0 7L7 7L7 0ZM1 1L1 6L6 6L6 1ZM2 2L2 5L5 5L5 2ZM18 0L18 7L25 7L25 0ZM19 1L19 6L24 6L24 1ZM20 2L20 5L23 5L23 2ZM0 18L0 25L7 25L7 18ZM1 19L1 24L6 24L6 19ZM2 20L2 23L5 23L5 20Z" fill="#000000"/></g></g></svg>
