<?xml version="1.0" encoding="UTF-8"?>
<svg xmlns="http://www.w3.org/2000/svg" version="1.1" width="300" height="300" viewBox="0 0 300 300"><rect x="0" y="0" width="300" height="300" fill="#ffffff"/><g transform="scale(12)"><g transform="translate(0,0)"><path fill-rule="evenodd" d="M8 0L8 1L9 1L9 2L8 2L8 5L9 5L9 4L11 4L11 5L10 5L10 10L8 10L8 11L9 11L9 12L8 12L8 13L9 13L9 14L8 14L8 16L6 16L6 17L8 17L8 18L9 18L9 17L8 17L8 16L10 16L10 18L11 18L11 16L12 16L12 17L16 17L16 19L15 19L15 18L13 18L13 19L15 19L15 20L16 20L16 21L14 21L14 22L13 22L13 23L11 23L11 22L10 22L10 23L9 23L9 21L8 21L8 25L10 25L10 23L11 23L11 25L13 25L13 24L14 24L14 23L15 23L15 22L16 22L16 23L17 23L17 24L18 24L18 25L25 25L25 24L23 24L23 23L24 23L24 22L25 22L25 21L24 21L24 20L25 20L25 15L24 15L24 14L25 14L25 12L23 12L23 11L20 11L20 9L23 9L23 10L24 10L24 9L25 9L25 8L24 8L24 9L23 9L23 8L20 8L20 9L19 9L19 11L18 11L18 10L17 10L17 9L18 9L18 8L17 8L17 5L16 5L16 4L15 4L15 3L16 3L16 2L17 2L17 0L16 0L16 2L13 2L13 1L14 1L14 0L12 0L12 1L11 1L11 0L10 0L10 1L9 1L9 0ZM11 2L11 4L12 4L12 3L13 3L13 2ZM13 4L13 5L12 5L12 6L11 6L11 8L12 8L12 6L13 6L13 9L14 9L14 12L15 12L15 11L16 11L16 9L17 9L17 8L16 8L16 5L15 5L15 7L14 7L14 6L13 6L13 5L14 5L14 4ZM8 6L8 7L9 7L9 6ZM0 8L0 9L2 9L2 12L1 12L1 11L0 11L0 13L1 13L1 15L0 15L0 16L1 16L1 15L2 15L2 13L4 13L4 12L5 12L5 10L6 10L6 11L7 11L7 10L6 10L6 9L7 9L7 8L6 8L6 9L4 9L4 8ZM8 8L8 9L9 9L9 8ZM14 8L14 9L15 9L15 8ZM11 9L11 10L12 10L12 9ZM3 10L3 11L4 11L4 10ZM11 11L11 13L10 13L10 14L9 14L9 15L10 15L10 16L11 16L11 15L10 15L10 14L11 14L11 13L12 13L12 12L13 12L13 11ZM19 11L19 13L20 13L20 11ZM6 12L6 13L7 13L7 12ZM21 12L21 14L20 14L20 15L22 15L22 16L24 16L24 15L22 15L22 14L24 14L24 13L22 13L22 12ZM13 13L13 14L12 14L12 16L14 16L14 15L13 15L13 14L15 14L15 16L16 16L16 15L19 15L19 14L15 14L15 13ZM3 14L3 15L4 15L4 17L5 17L5 15L7 15L7 14L5 14L5 15L4 15L4 14ZM2 16L2 17L3 17L3 16ZM17 17L17 20L20 20L20 17ZM21 17L21 18L24 18L24 17ZM18 18L18 19L19 19L19 18ZM9 19L9 20L10 20L10 21L11 21L11 20L12 20L12 19ZM21 19L21 22L22 22L22 21L23 21L23 20L24 20L24 19ZM16 21L16 22L17 22L17 21ZM19 21L19 22L20 22L20 21ZM19 23L19 24L20 24L20 23ZM21 23L21 24L22 24L22 23ZM0 0L0 7L7 7L7 0ZM1 1L1 6L6 6L6 1ZM2 2L2 5L5 5L5 2ZM18 0L18 7L25 7L25 0ZM19 1L19 6L24 6L24 1ZM20 2L20 5L23 5L23 2ZM0 18L0 25L7 25L7 18ZM1 19L1 24L6 24L6 19ZM2 20L2 23L5 23L5 20Z" fill="#000000"/></g></g></svg>
